<?xml version="1.0" encoding="utf-8"?>
<!-- Generator: Adobe Illustrator 16.0.0, SVG Export Plug-In . SVG Version: 6.00 Build 0)  -->
<!DOCTYPE svg PUBLIC "-//W3C//DTD SVG 1.1//EN" "http://www.w3.org/Graphics/SVG/1.1/DTD/svg11.dtd">
<svg version="1.1"
	 id="svg3353" xmlns:dc="http://purl.org/dc/elements/1.1/" xmlns:cc="http://creativecommons.org/ns#" xmlns:rdf="http://www.w3.org/1999/02/22-rdf-syntax-ns#" xmlns:svg="http://www.w3.org/2000/svg" xmlns:sodipodi="http://sodipodi.sourceforge.net/DTD/sodipodi-0.dtd" xmlns:inkscape="http://www.inkscape.org/namespaces/inkscape" sodipodi:docname="shutter icon.svg" inkscape:version="0.91 r13725"
	 xmlns="http://www.w3.org/2000/svg" xmlns:xlink="http://www.w3.org/1999/xlink" x="0px" y="0px" width="625px" height="625px"
	 viewBox="0 0 625 625" enable-background="new 0 0 625 625" xml:space="preserve">
<sodipodi:namedview  units="px" borderlayer="false" showgrid="false" inkscape:cy="204.15563" inkscape:cx="562.26352" inkscape:zoom="0.36701389" borderopacity="1.0" bordercolor="#666666" pagecolor="#ffffff" id="base" inkscape:current-layer="layer1" inkscape:pageshadow="2" inkscape:document-units="px" inkscape:pageopacity="0.0" inkscape:showpageshadow="false">
	</sodipodi:namedview>
<g id="layer1" transform="translate(-1434.9361,-112.57739)" inkscape:label="Layer 1" inkscape:groupmode="layer">
	<g id="g5572" transform="matrix(1.25,0,0,-1.25,1434.9361,737.57739)" inkscape:label="shutter icon">
		<g id="g5574">
			<g>
				<defs>
					<rect id="SVGID_1_" x="-62.5" y="-62.5" width="625" height="625"/>
				</defs>
				<clipPath id="SVGID_2_">
					<use xlink:href="#SVGID_1_"  overflow="visible"/>
				</clipPath>
				<g id="g5576" clip-path="url(#SVGID_2_)">
					<g id="g5582" transform="translate(276.31,324)">
						<path id="path5584" inkscape:connector-curvature="0" fill="#FFFFFF" d="M0,0h-265.17
							c24.73,79.941,88.491,142.72,169.02,166.1L0,0z"/>
					</g>
					<g id="g5586" transform="translate(197.75,309)">
						<path id="path5588" inkscape:connector-curvature="0" fill="#FFFFFF" d="M0,0l-130.72-229.34
							C-172.3-184.69-197.75-124.82-197.75-59c0,20.33,2.44,40.08,7.02,59H0z"/>
					</g>
					<g id="g5590" transform="translate(424.94,428.57)">
						<path id="path5592" inkscape:connector-curvature="0" fill="#FFFFFF" d="M0,0l-96.53-164.62L-229.69,65.4
							c17.62,3.94,35.94,6.03,54.75,6.03C-106.83,71.43-45.09,44.18,0,0"/>
					</g>
					<g id="g5594" transform="translate(487.9,173)">
						<path id="path5596" inkscape:connector-curvature="0" fill="#FFFFFF" d="M0,0c-25.65-79.3-89.83-141.25-170.47-163.79
							L-263.79,0H0z"/>
					</g>
					<g id="g5598" transform="translate(302.28,5.49)">
						<path id="path5600" inkscape:connector-curvature="0" fill="#FFFFFF" d="M0,0C-16.86-3.59-34.35-5.49-52.28-5.49
							c-66.65,0-127.2,26.08-172.01,68.591l94.191,165.25L0,0z"/>
					</g>
					<g id="g5602" transform="translate(500,250)">
						<path id="path5604" inkscape:connector-curvature="0" fill="#FFFFFF" d="M0,0c0-21.4-2.69-42.17-7.75-62h-190.98
							l134.46,229.33C-24.32,123.02,0,64.35,0,0"/>
					</g>
				</g>
			</g>
		</g>
	</g>
</g>
</svg>
